# Blender 4.3.2
# www.blender.org
mtllib EnemySpawner.mtl
o Spawner
v 0.679925 -0.679925 -0.679925
v 0.679925 0.679925 -0.679925
v 0.679925 -0.679925 0.679925
v 0.679925 0.679925 0.679925
v -0.679925 -0.679925 -0.679925
v -0.679925 0.679925 -0.679925
v -0.679925 -0.679925 0.679925
v -0.679925 0.679925 0.679925
v -0.000000 -0.759878 0.759878
v -0.000000 0.759878 0.759878
v 0.000000 -0.759878 -0.759878
v 0.000000 0.759878 -0.759878
v 0.759878 -0.759878 0.000000
v 0.759878 0.759878 0.000000
v -0.759878 -0.759878 -0.000000
v -0.759878 0.759878 -0.000000
v 0.000000 1.588855 -0.000000
v -0.000000 -1.588855 0.000000
v 0.759878 -0.759878 -0.379939
v -0.759878 0.759878 -0.379939
v 0.000000 1.106719 -0.500000
v 0.000000 -1.106719 -0.500000
v 0.759878 0.759878 -0.379939
v -0.759878 -0.759878 -0.379939
v 0.759878 0.759878 0.379939
v -0.759878 -0.759878 0.379939
v 0.759878 -0.759878 0.379939
v -0.759878 0.759878 0.379939
v -0.000000 1.106719 0.500000
v -0.000000 -1.106719 0.500000
v 0.379939 -0.759878 0.759878
v 0.379939 0.759878 -0.759878
v 0.379939 0.759878 0.759878
v 0.379939 -0.759878 -0.759878
v 0.500000 -1.106719 0.000000
v 0.500000 1.106719 -0.000000
v 0.500000 -1.106719 -0.500000
v 0.500000 1.106719 -0.500000
v 0.500000 1.106719 0.500000
v 0.500000 -1.106719 0.500000
v -0.379939 0.759878 0.759878
v -0.379939 -0.759878 -0.759878
v -0.379939 -0.759878 0.759878
v -0.379939 0.759878 -0.759878
v -0.500000 1.106719 -0.000000
v -0.500000 -1.106719 0.000000
v -0.500000 1.106719 -0.500000
v -0.500000 -1.106719 -0.500000
v -0.500000 -1.106719 0.500000
v -0.500000 1.106719 0.500000
v 0.759878 -0.000000 -0.759878
v 0.759878 0.000000 0.759878
v -0.759878 0.000000 0.759878
v -0.759878 -0.000000 -0.759878
v 0.000000 -0.000000 -1.178124
v -0.000000 0.000000 1.178124
v -1.178124 0.000000 -0.000000
v 1.178124 0.000000 0.000000
v 0.914126 -0.000000 -0.457063
v -0.914126 -0.000000 -0.457063
v -0.914126 0.000000 0.457063
v 0.914126 0.000000 0.457063
v 0.457063 0.000000 0.914126
v 0.457063 -0.000000 -0.914126
v -0.457063 -0.000000 -0.914126
v -0.457063 0.000000 0.914126
v 0.759878 0.379939 -0.759878
v 0.759878 0.379939 0.759878
v -0.759878 0.379939 0.759878
v -0.759878 0.379939 -0.759878
v 0.000000 0.500000 -1.000000
v -0.000000 0.500000 1.000000
v -1.000000 0.500000 -0.000000
v 1.000000 0.500000 0.000000
v 0.914126 0.457063 -0.457063
v -0.914126 0.457063 -0.457063
v -0.914126 0.457063 0.457063
v 0.914126 0.457063 0.457063
v 0.457063 0.457063 0.914126
v 0.457063 0.457063 -0.914126
v -0.457063 0.457063 -0.914126
v -0.457063 0.457063 0.914126
v 0.759878 -0.379939 0.759878
v -0.759878 -0.379939 0.759878
v -0.759878 -0.379939 -0.759878
v 0.000000 -0.500000 -1.000000
v -0.000000 -0.500000 1.000000
v -1.000000 -0.500000 -0.000000
v 1.000000 -0.500000 0.000000
v 0.914126 -0.457063 -0.457063
v -0.914126 -0.457063 -0.457063
v -0.914126 -0.457063 0.457063
v 0.914126 -0.457063 0.457063
v 0.457063 -0.457063 0.914126
v 0.457063 -0.457063 -0.914126
v -0.457063 -0.457063 -0.914126
v -0.457063 -0.457063 0.914126
v 0.759878 -0.379939 -0.759878
vn 0.7981 0.3445 0.4943
vn -0.4943 0.3445 0.7981
vn -0.7981 0.3445 -0.4943
vn 0.4943 0.3445 -0.7981
vn -0.3435 -0.4841 -0.8048
vn -0.3447 -0.4940 -0.7982
vn 0.3435 0.4841 -0.8048
vn 0.3447 0.4940 -0.7982
vn -0.0000 0.5996 -0.8003
vn -0.0000 -0.5996 -0.8003
vn -0.2053 0.4852 -0.8500
vn 0.2053 0.4852 0.8500
vn 0.6941 -0.7198 -0.0000
vn -0.6941 0.7198 -0.0000
vn 0.8003 0.5996 -0.0000
vn -0.8003 -0.5996 -0.0000
vn -0.8500 0.4852 0.2053
vn 0.8500 0.4852 -0.2053
vn 0.7981 0.3445 -0.4943
vn -0.8500 0.4852 -0.2053
vn -0.7981 0.3445 0.4943
vn -0.3447 -0.4940 0.7982
vn -0.3435 -0.4841 0.8048
vn 0.3447 0.4940 0.7982
vn 0.3435 0.4841 0.8048
vn -0.0000 0.5996 0.8003
vn -0.0000 -0.5996 0.8003
vn 0.8500 0.4852 0.2053
vn 0.7982 -0.4940 0.3447
vn 0.8048 -0.4841 0.3435
vn 0.6941 0.7198 -0.0000
vn 0.8003 -0.5996 -0.0000
vn -0.0000 0.7198 0.6941
vn 0.4943 0.3445 0.7981
vn 0.8048 -0.4841 -0.3435
vn 0.7982 -0.4940 -0.3447
vn 0.2053 0.4852 -0.8500
vn -0.7982 0.4940 0.3447
vn -0.8048 0.4841 0.3435
vn -0.0000 -0.7198 -0.6941
vn -0.8003 0.5996 -0.0000
vn -0.0000 -0.7198 0.6941
vn -0.4943 0.3445 -0.7981
vn -0.8048 0.4841 -0.3435
vn -0.7982 0.4940 -0.3447
vn -0.2053 0.4852 0.8500
vn -0.1847 -0.0000 0.9828
vn -0.4539 -0.0000 -0.8911
vn 0.1847 -0.0000 -0.9828
vn 0.4539 -0.0000 0.8911
vn 0.9828 -0.0000 0.1847
vn -0.8911 -0.0000 0.4539
vn -0.9828 -0.0000 -0.1847
vn 0.8911 -0.0000 -0.4539
vn 0.9828 -0.0000 -0.1847
vn -0.9828 -0.0000 0.1847
vn 0.1847 -0.0000 0.9828
vn -0.1847 -0.0000 -0.9828
vn 0.4539 -0.0000 -0.8911
vn -0.8911 -0.0000 -0.4539
vn -0.4539 -0.0000 0.8911
vn 0.8911 -0.0000 0.4539
vn -0.4779 0.2948 0.8275
vn 0.4779 0.2948 -0.8275
vn 0.8275 0.2948 0.4779
vn -0.8275 0.2948 -0.4779
vn 0.8275 0.2948 -0.4779
vn -0.8275 0.2948 0.4779
vn 0.4779 0.2948 0.8275
vn -0.4779 0.2948 -0.8275
vn 0.7981 -0.4943 0.3445
vn -0.3445 -0.4943 0.7981
vn -0.7981 -0.4943 -0.3445
vn -0.7982 -0.4940 -0.3447
vn 0.3445 -0.4943 -0.7981
vn 0.3447 -0.4940 -0.7982
vn -0.0000 -0.6786 -0.7345
vn -0.0000 -0.6786 0.7345
vn -0.7345 -0.6786 -0.0000
vn 0.7345 -0.6786 -0.0000
vn 0.7981 -0.4943 -0.3445
vn -0.7982 -0.4940 0.3447
vn -0.7981 -0.4943 0.3445
vn 0.3447 -0.4940 0.7982
vn 0.3445 -0.4943 0.7981
vn -0.3445 -0.4943 -0.7981
vn -0.0000 0.7198 -0.6941
vn -0.6941 -0.7198 -0.0000
vn 0.7981 0.4943 0.3445
vn 0.7982 0.4940 0.3447
vn -0.3445 0.4943 0.7981
vn -0.3447 0.4940 0.7982
vn -0.7981 0.4943 -0.3445
vn 0.3445 0.4943 -0.7981
vn -0.8048 -0.4841 -0.3435
vn 0.8048 0.4841 -0.3435
vn 0.7982 0.4940 -0.3447
vn -0.0000 0.6786 -0.7345
vn -0.0000 0.6786 0.7345
vn -0.7345 0.6786 -0.0000
vn 0.7345 0.6786 -0.0000
vn 0.7981 0.4943 -0.3445
vn -0.7981 0.4943 0.3445
vn -0.8048 -0.4841 0.3435
vn 0.8048 0.4841 0.3435
vn 0.3435 -0.4841 0.8048
vn 0.3445 0.4943 0.7981
vn 0.3435 -0.4841 -0.8048
vn -0.3435 0.4841 0.8048
vn -0.3447 0.4940 -0.7982
vn -0.3445 0.4943 -0.7981
vn -0.3435 0.4841 -0.8048
vn -0.4779 -0.2948 0.8275
vn 0.4779 -0.2948 -0.8275
vn 0.8275 -0.2948 0.4779
vn -0.8275 -0.2948 -0.4779
vn 0.8275 -0.2948 -0.4779
vn -0.8275 -0.2948 0.4779
vn 0.4779 -0.2948 0.8275
vn -0.4779 -0.2948 -0.8275
vn 0.7981 -0.3445 0.4943
vn -0.4943 -0.3445 0.7981
vn -0.7981 -0.3445 -0.4943
vn 0.4943 -0.3445 -0.7981
vn -0.2053 -0.4852 -0.8500
vn 0.2053 -0.4852 0.8500
vn -0.8500 -0.4852 0.2053
vn 0.8500 -0.4852 -0.2053
vn 0.7981 -0.3445 -0.4943
vn -0.8500 -0.4852 -0.2053
vn -0.7981 -0.3445 0.4943
vn 0.8500 -0.4852 0.2053
vn 0.4943 -0.3445 0.7981
vn 0.2053 -0.4852 -0.8500
vn -0.4943 -0.3445 -0.7981
vn -0.2053 -0.4852 0.8500
vt 0.562500 0.187500
vt 0.625000 0.250000
vt 0.562500 0.250000
vt 0.562500 0.437500
vt 0.625000 0.500000
vt 0.562500 0.500000
vt 0.562500 0.687500
vt 0.625000 0.750000
vt 0.562500 0.750000
vt 0.562500 0.937500
vt 0.625000 1.000000
vt 0.562500 1.000000
vt 0.312500 0.687500
vt 0.375000 0.750000
vt 0.312500 0.750000
vt 0.812500 0.687500
vt 0.875000 0.750000
vt 0.812500 0.750000
vt 0.750000 0.687500
vt 0.687500 0.750000
vt 0.687500 0.687500
vt 0.250000 0.687500
vt 0.187500 0.750000
vt 0.187500 0.687500
vt 0.625000 0.812500
vt 0.562500 0.875000
vt 0.562500 0.812500
vt 0.625000 0.312500
vt 0.562500 0.375000
vt 0.562500 0.312500
vt 0.187500 0.562500
vt 0.250000 0.625000
vt 0.187500 0.625000
vt 0.687500 0.562500
vt 0.750000 0.625000
vt 0.687500 0.625000
vt 0.875000 0.562500
vt 0.812500 0.625000
vt 0.812500 0.562500
vt 0.375000 0.562500
vt 0.312500 0.625000
vt 0.312500 0.562500
vt 0.625000 0.562500
vt 0.562500 0.625000
vt 0.562500 0.562500
vt 0.625000 0.062500
vt 0.562500 0.125000
vt 0.562500 0.062500
vt 0.625000 0.000000
vt 0.562500 0.000000
vt 0.875000 0.687500
vt 0.375000 0.687500
vt 0.625000 0.687500
vt 0.375000 0.500000
vt 0.312500 0.500000
vt 0.875000 0.500000
vt 0.812500 0.500000
vt 0.687500 0.500000
vt 0.750000 0.562500
vt 0.187500 0.500000
vt 0.250000 0.562500
vt 0.625000 0.187500
vt 0.125000 0.500000
vt 0.125000 0.562500
vt 0.750000 0.500000
vt 0.125000 0.687500
vt 0.125000 0.625000
vt 0.125000 0.750000
vt 0.750000 0.750000
vt 0.625000 0.937500
vt 0.250000 0.500000
vt 0.625000 0.625000
vt 0.250000 0.750000
vt 0.625000 0.437500
vt 0.437500 0.375000
vt 0.500000 0.437500
vt 0.437500 0.437500
vt 0.437500 0.750000
vt 0.500000 0.812500
vt 0.437500 0.812500
vt 0.437500 0.875000
vt 0.500000 0.937500
vt 0.437500 0.937500
vt 0.437500 0.250000
vt 0.500000 0.312500
vt 0.437500 0.312500
vt 0.437500 0.125000
vt 0.500000 0.187500
vt 0.437500 0.187500
vt 0.437500 0.500000
vt 0.500000 0.562500
vt 0.437500 0.562500
vt 0.437500 0.625000
vt 0.500000 0.687500
vt 0.437500 0.687500
vt 0.437500 0.000000
vt 0.500000 0.062500
vt 0.437500 0.062500
vt 0.437500 1.000000
vt 0.500000 0.375000
vt 0.500000 0.750000
vt 0.500000 0.875000
vt 0.500000 0.250000
vt 0.500000 0.125000
vt 0.500000 0.500000
vt 0.500000 0.625000
vt 0.500000 0.000000
vt 0.500000 1.000000
vt 0.375000 0.250000
vt 0.375000 0.187500
vt 0.375000 0.437500
vt 0.375000 1.000000
vt 0.375000 0.937500
vt 0.375000 0.812500
vt 0.375000 0.875000
vt 0.375000 0.312500
vt 0.375000 0.375000
vt 0.375000 0.625000
vt 0.375000 0.062500
vt 0.375000 0.125000
vt 0.375000 0.000000
vt 0.625000 0.875000
vt 0.625000 0.375000
vt 0.875000 0.625000
vt 0.625000 0.125000
s 1
usemtl マテリアル.002
f 78/1/1 4/2/1 68/3/1
f 82/4/2 8/5/2 69/6/2
f 76/7/3 6/8/3 70/9/3
f 80/10/4 2/11/4 67/12/4
f 48/13/5 5/14/6 42/15/6
f 38/16/7 2/17/8 32/18/8
f 21/19/9 44/20/9 47/21/9
f 22/22/10 34/23/10 37/24/10
f 44/25/11 71/26/11 81/27/11
f 33/28/12 72/29/12 79/30/12
f 40/31/13 18/32/13 35/33/13
f 50/34/14 17/35/14 45/36/14
f 25/37/15 36/38/15 39/39/15
f 26/40/16 46/41/16 49/42/16
f 28/43/17 73/44/17 77/45/17
f 23/46/18 74/47/18 75/48/18
f 2/49/19 75/48/19 67/50/19
f 35/33/13 18/32/13 37/24/13
f 45/36/14 17/35/14 47/21/14
f 36/38/15 23/51/15 38/16/15
f 46/41/16 24/52/16 48/13/16
f 73/44/20 20/53/20 76/7/20
f 8/5/21 77/45/21 69/6/21
f 7/54/22 49/42/23 43/55/22
f 4/56/24 39/39/25 33/57/24
f 41/58/26 29/59/26 50/34/26
f 31/60/27 30/61/27 40/31/27
f 74/47/28 25/62/28 78/1/28
f 3/63/29 40/31/30 27/64/29
f 33/57/26 29/59/26 10/65/26
f 17/35/31 36/38/31 38/16/31
f 35/33/32 19/66/32 13/67/32
f 29/59/33 39/39/33 17/35/33
f 27/64/32 35/33/32 13/67/32
f 4/2/34 79/30/34 68/3/34
f 37/24/35 1/68/36 19/66/36
f 21/19/9 32/18/9 12/69/9
f 71/26/37 32/70/37 80/10/37
f 8/5/38 50/34/39 28/43/38
f 43/55/27 30/61/27 9/71/27
f 18/32/40 48/13/40 22/22/40
f 45/36/41 20/53/41 16/72/41
f 30/61/42 49/42/42 18/32/42
f 28/43/41 45/36/41 16/72/41
f 6/8/43 81/27/43 70/9/43
f 47/21/44 6/8/45 20/53/45
f 22/22/10 42/15/10 11/73/10
f 72/29/46 41/74/46 82/4/46
f 87/75/47 66/76/47 97/77/47
f 85/78/48 65/79/48 96/80/48
f 86/81/49 64/82/49 95/83/49
f 83/84/50 63/85/50 94/86/50
f 89/87/51 62/88/51 93/89/51
f 84/90/52 61/91/52 92/92/52
f 88/93/53 60/94/53 91/95/53
f 98/96/54 59/97/54 90/98/54
f 59/97/55 89/87/55 90/98/55
f 61/91/56 88/93/56 92/92/56
f 63/85/57 87/75/57 94/86/57
f 65/79/58 86/81/58 96/80/58
f 64/82/59 98/99/59 95/83/59
f 60/94/60 85/78/60 91/95/60
f 66/76/61 84/90/61 97/77/61
f 62/88/62 83/84/62 93/89/62
f 72/29/63 66/76/63 56/100/63
f 70/9/48 65/79/48 54/101/48
f 71/26/64 64/82/64 55/102/64
f 68/3/50 63/85/50 52/103/50
f 74/47/65 62/88/65 58/104/65
f 69/6/52 61/91/52 53/105/52
f 73/44/66 60/94/66 57/106/66
f 67/50/54 59/97/54 51/107/54
f 59/97/67 74/47/67 58/104/67
f 61/91/68 73/44/68 57/106/68
f 63/85/69 72/29/69 56/100/69
f 65/79/70 71/26/70 55/102/70
f 64/82/59 67/12/59 51/108/59
f 60/94/60 70/9/60 54/101/60
f 66/76/61 69/6/61 53/105/61
f 62/88/62 68/3/62 52/103/62
f 93/89/71 3/109/29 27/110/29
f 97/77/72 7/54/22 43/111/22
f 91/95/73 5/14/74 24/52/74
f 95/83/75 1/112/76 34/113/76
f 42/114/77 86/81/77 11/115/77
f 31/116/78 87/75/78 9/117/78
f 26/40/79 88/93/79 15/118/79
f 19/119/80 89/87/80 13/120/80
f 1/121/36 90/98/81 19/119/36
f 88/93/79 24/52/79 15/118/79
f 7/54/82 92/92/83 26/40/82
f 89/87/80 27/110/80 13/120/80
f 3/109/84 94/86/85 31/116/84
f 86/81/77 34/113/77 11/115/77
f 5/14/6 96/80/86 42/114/6
f 87/75/78 43/111/78 9/117/78
f 17/35/33 50/34/33 29/59/33
f 47/21/87 17/35/87 21/19/87
f 38/16/87 21/19/87 17/35/87
f 17/35/31 39/39/31 36/38/31
f 18/32/88 49/42/88 46/41/88
f 18/32/42 40/31/42 30/61/42
f 48/13/88 18/32/88 46/41/88
f 37/24/40 18/32/40 22/22/40
f 78/1/89 25/62/90 4/2/90
f 82/4/91 41/74/92 8/5/92
f 76/7/93 20/53/45 6/8/45
f 80/10/94 32/70/8 2/11/8
f 48/13/95 24/52/74 5/14/74
f 38/16/96 23/51/97 2/17/97
f 21/19/9 12/69/9 44/20/9
f 22/22/10 11/73/10 34/23/10
f 44/25/98 12/122/98 71/26/98
f 33/28/99 10/123/99 72/29/99
f 25/37/15 14/124/15 36/38/15
f 26/40/16 15/118/16 46/41/16
f 28/43/100 16/72/100 73/44/100
f 23/46/101 14/125/101 74/47/101
f 2/49/97 23/46/97 75/48/102
f 36/38/15 14/124/15 23/51/15
f 46/41/16 15/118/16 24/52/16
f 73/44/100 16/72/100 20/53/100
f 8/5/38 28/43/38 77/45/103
f 7/54/82 26/40/82 49/42/104
f 4/56/90 25/37/90 39/39/105
f 41/58/26 10/65/26 29/59/26
f 31/60/27 9/71/27 30/61/27
f 74/47/101 14/125/101 25/62/101
f 3/63/84 31/60/84 40/31/106
f 33/57/26 39/39/26 29/59/26
f 35/33/32 37/24/32 19/66/32
f 27/64/32 40/31/32 35/33/32
f 4/2/24 33/28/24 79/30/107
f 37/24/108 34/23/76 1/68/76
f 21/19/9 38/16/9 32/18/9
f 71/26/98 12/122/98 32/70/98
f 8/5/92 41/58/92 50/34/109
f 43/55/27 49/42/27 30/61/27
f 45/36/41 47/21/41 20/53/41
f 28/43/41 50/34/41 45/36/41
f 6/8/110 44/25/110 81/27/111
f 47/21/112 44/20/110 6/8/110
f 22/22/10 48/13/10 42/15/10
f 72/29/99 10/123/99 41/74/99
f 87/75/113 56/100/113 66/76/113
f 85/78/48 54/101/48 65/79/48
f 86/81/114 55/102/114 64/82/114
f 83/84/50 52/103/50 63/85/50
f 89/87/115 58/104/115 62/88/115
f 84/90/52 53/105/52 61/91/52
f 88/93/116 57/106/116 60/94/116
f 98/96/54 51/107/54 59/97/54
f 59/97/117 58/104/117 89/87/117
f 61/91/118 57/106/118 88/93/118
f 63/85/119 56/100/119 87/75/119
f 65/79/120 55/102/120 86/81/120
f 64/82/59 51/108/59 98/99/59
f 60/94/60 54/101/60 85/78/60
f 66/76/61 53/105/61 84/90/61
f 62/88/62 52/103/62 83/84/62
f 72/29/47 82/4/47 66/76/47
f 70/9/48 81/27/48 65/79/48
f 71/26/49 80/10/49 64/82/49
f 68/3/50 79/30/50 63/85/50
f 74/47/51 78/1/51 62/88/51
f 69/6/52 77/45/52 61/91/52
f 73/44/53 76/7/53 60/94/53
f 67/50/54 75/48/54 59/97/54
f 59/97/55 75/48/55 74/47/55
f 61/91/56 77/45/56 73/44/56
f 63/85/57 79/30/57 72/29/57
f 65/79/58 81/27/58 71/26/58
f 64/82/59 80/10/59 67/12/59
f 60/94/60 76/7/60 70/9/60
f 66/76/61 82/4/61 69/6/61
f 62/88/62 78/1/62 68/3/62
f 93/89/121 83/84/121 3/109/121
f 97/77/122 84/90/122 7/54/122
f 91/95/123 85/78/123 5/14/123
f 95/83/124 98/99/124 1/112/124
f 42/114/125 96/80/125 86/81/125
f 31/116/126 94/86/126 87/75/126
f 26/40/127 92/92/127 88/93/127
f 19/119/128 90/98/128 89/87/128
f 1/121/129 98/96/129 90/98/129
f 88/93/130 91/95/130 24/52/130
f 7/54/131 84/90/131 92/92/131
f 89/87/132 93/89/132 27/110/132
f 3/109/133 83/84/133 94/86/133
f 86/81/134 95/83/134 34/113/134
f 5/14/135 85/78/135 96/80/135
f 87/75/136 97/77/136 43/111/136
