# Blender 4.3.2
# www.blender.org
mtllib hitParticle.mtl
o 立方体
v 0.181140 -0.181140 -0.487166
v 0.181140 0.181140 -0.487166
v 0.181140 -0.181140 0.487166
v 0.181140 0.181140 0.487166
v -0.181140 -0.181140 -0.487166
v -0.181140 0.181140 -0.487166
v -0.181140 -0.181140 0.487166
v -0.181140 0.181140 0.487166
v 0.321637 -0.321637 0.000000
v 0.321637 0.321637 0.000000
v -0.321637 -0.321637 0.000000
v -0.321637 0.321637 0.000000
vn 0.9608 -0.0000 0.2771
vn -0.0000 -0.0000 1.0000
vn -0.9608 -0.0000 -0.2771
vn -0.0000 -0.0000 -1.0000
vn -0.0000 -0.9608 -0.2771
vn -0.0000 0.9608 -0.2771
vn -0.0000 0.9608 0.2771
vn -0.0000 -0.9608 0.2771
vn -0.9608 -0.0000 0.2771
vn 0.9608 -0.0000 -0.2771
vt 0.053606 0.215905
vt 0.785620 0.008823
vt 0.968096 0.216723
vt 0.270598 0.008363
vt 0.751105 0.424266
vt 0.236082 0.423805
s 0
usemtl マテリアル
f 10/1/1 3/2/1 9/3/1
f 4/4/2 7/2/2 3/2/2
f 12/1/3 5/5/3 11/3/3
f 6/6/4 1/5/4 5/5/4
f 11/3/5 1/5/5 9/3/5
f 10/1/6 6/6/6 12/1/6
f 4/4/7 12/1/7 8/4/7
f 7/2/8 9/3/8 3/2/8
f 8/4/9 11/3/9 7/2/9
f 2/6/10 9/3/10 1/5/10
f 10/1/1 4/4/1 3/2/1
f 4/4/2 8/4/2 7/2/2
f 12/1/3 6/6/3 5/5/3
f 6/6/4 2/6/4 1/5/4
f 11/3/5 5/5/5 1/5/5
f 10/1/6 2/6/6 6/6/6
f 4/4/7 10/1/7 12/1/7
f 7/2/8 11/3/8 9/3/8
f 8/4/9 12/1/9 11/3/9
f 2/6/10 10/1/10 9/3/10
