# Blender 4.3.2
# www.blender.org
mtllib Player.mtl
o body
v 0.750245 -0.130043 -0.750245
v 0.750245 1.370447 -0.750245
v 0.750245 -0.130042 0.750245
v 0.750245 1.370448 0.750245
v -0.750245 -0.130043 -0.750245
v -0.750245 1.370447 -0.750245
v -0.750245 -0.130042 0.750245
v -0.750245 1.370448 0.750245
vn -0.0000 -0.0000 1.0000
vn -1.0000 -0.0000 -0.0000
vn -0.0000 -0.0000 -1.0000
vn -0.0000 -1.0000 -0.0000
vn -0.0000 1.0000 -0.0000
vn 1.0000 -0.0000 -0.0000
vt 0.625000 0.500000
vt 0.375000 0.250000
vt 0.625000 0.250000
vt 0.625000 0.750000
vt 0.375000 0.500000
vt 0.625000 1.000000
vt 0.375000 0.750000
vt 0.125000 0.500000
vt 0.875000 0.750000
vt 0.875000 0.500000
vt 0.625000 0.000000
vt 0.375000 0.000000
vt 0.375000 1.000000
vt 0.125000 0.750000
s 1
usemtl マテリアル.001
f 8/1/1 3/2/1 4/3/1
f 6/4/2 7/5/2 8/1/2
f 2/6/3 5/7/3 6/4/3
f 5/7/4 3/8/4 7/5/4
f 2/9/5 8/1/5 4/10/5
f 2/11/6 3/2/6 1/12/6
f 8/1/1 7/5/1 3/2/1
f 6/4/2 5/7/2 7/5/2
f 2/6/3 1/13/3 5/7/3
f 5/7/4 1/14/4 3/8/4
f 2/9/5 6/4/5 8/1/5
f 2/11/6 4/3/6 3/2/6
o sword
v -1.647002 0.731907 0.093534
v -1.647002 0.731907 -0.093533
v -1.647002 0.856975 -0.153895
v -1.647002 0.856975 0.153896
v -1.647002 2.932209 0.153895
v -1.647002 2.932209 -0.153896
v -1.689528 0.856975 -0.000000
v -1.604477 0.856975 -0.000000
v -1.647002 3.221434 0.000000
v -1.595582 0.731907 -0.000000
v -1.698423 0.731907 -0.000000
v -1.604477 2.932209 0.000000
v -1.689528 2.932209 0.000000
v -1.647002 0.772224 0.354271
v -1.647002 0.772224 -0.354271
v -1.647002 0.850224 -0.354271
v -1.647002 0.850224 0.354271
v -1.860954 0.850224 -0.000000
v -1.433050 0.850224 -0.000000
v -1.433050 0.772224 -0.000000
v -1.860954 0.772224 -0.000000
v -1.647002 0.261804 -0.086257
v -1.647002 0.261804 0.086257
v -1.599582 0.261804 -0.000000
v -1.694423 0.261804 -0.000000
vn 0.0053 0.2663 -0.9639
vn -0.9966 0.0826 0.0009
vn -0.0000 1.0000 -0.0000
vn -0.0006 0.2559 0.9667
vn 0.4357 0.8992 -0.0406
vn 0.9969 0.0784 0.0025
vn -0.4317 0.9014 -0.0339
vn -0.0000 0.7801 0.6257
vn -0.2778 -0.7939 0.5408
vn -0.0000 -0.7288 0.6848
vn -0.0192 0.9845 -0.1743
vn 0.1789 0.8313 -0.5263
vn -0.0000 0.9997 -0.0251
vn -0.0000 0.6539 -0.7566
vn -0.6644 -0.7413 -0.0947
vn 0.0037 -0.8800 -0.4749
vn 0.0896 0.9960 -0.0000
vn 0.3642 0.7654 0.5306
vn 0.8708 0.4916 -0.0000
vn 0.6801 -0.7296 -0.0716
vn 0.4773 -0.8710 0.1164
vn -0.0000 -1.0000 -0.0000
vn 0.0001 0.0226 -0.9997
vn 0.0001 0.0214 0.9998
vn -0.9999 0.0125 -0.0000
vn 0.9999 0.0135 -0.0000
vt 0.236875 0.131834
vt 0.198358 0.131623
vt 0.208810 0.011829
vt 0.112523 0.131834
vt 0.074006 0.987959
vt 0.074006 0.131623
vt 0.174699 0.987959
vt 0.136182 0.131834
vt 0.174699 0.131623
vt 0.050347 0.987959
vt 0.011829 0.131834
vt 0.050347 0.131623
vt 0.404409 0.412469
vt 0.372223 0.529863
vt 0.372223 0.412669
vt 0.306012 0.100160
vt 0.340942 0.188490
vt 0.260534 0.100160
vt 0.292720 0.529663
vt 0.260534 0.412669
vt 0.292720 0.412469
vt 0.340942 0.321709
vt 0.260534 0.300480
vt 0.319713 0.300480
vt 0.198358 0.987959
vt 0.340942 0.011830
vt 0.340942 0.082603
vt 0.375871 0.100160
vt 0.039895 0.011829
vt 0.084457 0.011829
vt 0.164247 0.011829
vt 0.445008 0.447040
vt 0.477194 0.564434
vt 0.445008 0.564234
vt 0.421349 0.300480
vt 0.340942 0.388810
vt 0.340942 0.117717
vt 0.316378 0.412469
vt 0.348564 0.529863
vt 0.316378 0.529663
vt 0.340942 0.279250
vt 0.362171 0.300480
vt 0.340942 0.212149
vt 0.528540 0.474727
vt 0.500853 0.447040
vt 0.528540 0.447040
vt 0.474704 0.229435
vt 0.447247 0.423382
vt 0.445008 0.229435
vt 0.472466 0.205776
vt 0.445008 0.011829
vt 0.474704 0.011829
vt 0.528059 0.229435
vt 0.500601 0.423382
vt 0.498363 0.229435
vt 0.528059 0.011829
vt 0.498435 0.205776
vt 0.498363 0.011829
vt 0.112523 0.988171
vt 0.136182 0.988171
vt 0.011829 0.988171
vt 0.404409 0.529663
vt 0.260534 0.529863
vt 0.236875 0.988171
vt 0.421349 0.100160
vt 0.477194 0.447241
vt 0.348564 0.412669
vt 0.500853 0.474727
vt 0.474632 0.423382
vt 0.445080 0.205776
vt 0.527987 0.423382
vt 0.525820 0.205776
s 1
usemtl マテリアル
f 14/15/7 21/16/8 17/17/9
f 13/18/10 16/19/11 20/20/12
f 16/21/11 14/22/7 20/23/12
f 15/24/13 13/25/10 21/26/8
f 25/27/14 29/28/15 22/29/16
f 11/30/17 27/31/18 24/32/19
f 27/33/18 23/34/20 24/35/19
f 19/36/21 23/37/20 10/38/22
f 14/15/7 15/39/13 21/16/8
f 11/30/17 26/40/23 15/41/13
f 26/40/23 12/42/24 15/41/13
f 13/25/10 17/43/9 21/26/8
f 20/20/12 17/44/9 13/18/10
f 14/22/7 17/45/9 20/23/12
f 24/46/19 29/47/15 26/48/23
f 19/36/21 22/49/16 29/50/15
f 12/42/24 27/31/18 16/51/11
f 25/52/14 28/53/25 27/54/18
f 18/55/26 22/49/16 9/56/27
f 18/55/26 23/37/20 28/57/25
f 30/58/28 31/59/28 33/60/28
f 18/61/26 30/62/29 10/63/22
f 31/64/30 18/65/26 9/66/27
f 19/67/21 31/68/30 9/69/27
f 10/70/22 33/71/31 19/72/21
f 13/18/10 12/73/24 16/19/11
f 16/21/11 11/74/17 14/22/7
f 15/24/13 12/75/24 13/25/10
f 25/27/14 26/76/23 29/28/15
f 11/30/17 16/51/11 27/31/18
f 27/33/18 28/77/25 23/34/20
f 19/36/21 29/50/15 23/37/20
f 14/15/7 11/78/17 15/39/13
f 11/30/17 24/32/19 26/40/23
f 26/40/23 25/79/14 12/42/24
f 24/46/19 23/80/20 29/47/15
f 19/36/21 9/56/27 22/49/16
f 12/42/24 25/79/14 27/31/18
f 25/52/14 22/81/16 28/53/25
f 18/55/26 28/57/25 22/49/16
f 18/55/26 10/38/22 23/37/20
f 30/58/28 32/82/28 31/59/28
f 18/61/26 32/83/32 30/62/29
f 31/64/30 32/84/32 18/65/26
f 19/67/21 33/85/31 31/68/30
f 10/70/22 30/86/29 33/71/31
