# Blender 4.2.3 LTS
# www.blender.org
mtllib rail.mtl
o 立方体.001
v 0.697945 -0.051000 0.051000
v 0.499000 -0.051000 0.997064
v -0.601000 -0.051000 0.997064
v 0.499000 0.051000 0.997064
v 0.499000 -0.051000 -0.997064
v 0.697945 0.051000 0.051000
v -0.601000 0.051000 0.997064
v 0.499000 0.051000 -0.997064
v -0.697945 -0.051000 0.051000
v 0.601000 -0.051000 0.997064
v -0.601000 -0.051000 -0.997064
v 0.601000 0.051000 0.997064
v -0.697945 0.051000 0.051000
v 0.601000 -0.051000 -0.997064
v -0.601000 0.051000 -0.997064
v 0.601000 0.051000 -0.997064
v 0.697945 -0.051000 -0.051000
v -0.499000 -0.051000 0.997064
v 0.697945 0.051000 -0.051000
v -0.499000 0.051000 0.997064
v -0.697945 -0.051000 -0.051000
v -0.499000 -0.051000 -0.997064
v -0.697945 0.051000 -0.051000
v -0.499000 0.051000 -0.997064
v -0.499000 0.051000 0.051000
v -0.601000 0.051000 0.051000
v -0.547391 -0.051000 0.051000
v -0.499000 -0.051000 0.051000
v -0.601000 -0.051000 0.051000
v -0.499000 0.051000 -0.051000
v -0.547391 0.051000 -0.051000
v -0.601000 0.051000 -0.051000
v -0.499000 -0.051000 -0.051000
v -0.601000 -0.051000 -0.051000
v -0.499000 0.051000 -0.036463
v -0.499000 -0.051000 0.036463
v -0.547952 -0.051000 0.040040
v -0.547952 0.051000 -0.040040
v 0.601000 0.051000 0.051000
v 0.499000 0.051000 0.051000
v 0.547391 0.051000 0.051000
v 0.601000 -0.051000 0.051000
v 0.499000 -0.051000 0.051000
v 0.601000 0.051000 -0.051000
v 0.499000 0.051000 -0.051000
v 0.547391 -0.051000 -0.051000
v 0.601000 -0.051000 -0.051000
v 0.499000 -0.051000 -0.051000
v 0.499000 0.051000 0.036463
v 0.499000 -0.051000 -0.034047
v 0.548045 -0.051000 -0.038226
v 0.548045 0.051000 0.038226
vn -0.0000 -0.0000 1.0000
vn -1.0000 -0.0000 -0.0000
vn -0.0000 -0.0000 -1.0000
vn 1.0000 -0.0000 -0.0000
vn -0.0000 -1.0000 -0.0000
vn -0.0000 1.0000 -0.0000
vt 0.375000 0.250000
vt 0.625000 0.232637
vt 0.625000 0.250000
vt 0.625000 0.214370
vt 0.375000 0.035630
vt 0.625000 0.035630
vt 0.625000 0.000000
vt 0.375000 0.017363
vt 0.375000 0.000000
vt 0.375000 0.500000
vt 0.625000 0.750000
vt 0.375000 0.732637
vt 0.625000 0.732637
vt 0.375000 0.535630
vt 0.625000 0.714370
vt 0.375000 0.714370
vt 0.625000 0.500000
vt 0.375000 0.517363
vt 0.375000 1.000000
vt 0.375000 0.750000
vt 0.125000 0.732637
vt 0.160630 0.535631
vt 0.333447 0.714369
vt 0.125000 0.714370
vt 0.343691 0.723153
vt 0.375000 0.723036
vt 0.125000 0.500000
vt 0.125000 0.517363
vt 0.125000 0.526964
vt 0.125000 0.535630
vt 0.151863 0.526863
vt 0.875000 0.750000
vt 0.875000 0.732637
vt 0.660631 0.535631
vt 0.875000 0.714370
vt 0.839369 0.714369
vt 0.843691 0.723153
vt 0.875000 0.723036
vt 0.875000 0.517363
vt 0.625000 0.517363
vt 0.625000 0.526964
vt 0.625000 0.535630
vt 0.651863 0.526863
vt 0.875000 0.535630
vt 0.125000 0.631394
vt 0.256394 0.631394
vt 0.125000 0.618606
vt 0.625000 0.631394
vt 0.875000 0.631394
vt 0.743606 0.618606
vt 0.875000 0.618606
vt 0.125000 0.750000
vt 0.375000 0.631394
vt 0.375000 0.618606
vt 0.243606 0.618606
vt 0.756394 0.631394
vt 0.875000 0.500000
vt 0.625000 0.618606
vt 0.375000 0.232637
vt 0.375000 0.214370
vt 0.625000 0.017363
vt 0.625000 1.000000
s 0
f 9/1/1 26/2/1 13/3/1
f 25/4/1 43/5/1 40/6/1
f 6/7/1 42/8/1 1/9/1
f 13/3/2 21/10/2 9/1/2
f 19/11/3 47/12/3 44/13/3
f 33/14/3 45/15/3 48/16/3
f 23/17/3 34/18/3 21/10/3
f 19/11/4 1/19/4 17/20/4
f 17/20/5 42/21/5 47/12/5
f 36/22/5 48/16/5 50/23/5
f 43/24/5 51/25/5 47/12/5
f 50/23/5 46/26/5 51/25/5
f 9/27/5 34/18/5 29/28/5
f 27/29/5 36/22/5 28/30/5
f 37/31/5 29/28/5 33/14/5
f 6/32/6 44/13/6 39/33/6
f 35/34/6 40/35/6 49/36/6
f 39/33/6 45/15/6 52/37/6
f 49/36/6 41/38/6 52/37/6
f 23/17/6 26/39/6 32/40/6
f 31/41/6 35/34/6 30/42/6
f 38/43/6 32/40/6 25/44/6
f 15/7/2 34/1/2 32/7/2
f 7/7/2 29/1/2 3/1/2
f 15/3/3 22/10/3 11/10/3
f 20/17/4 28/20/4 25/17/4
f 24/17/4 33/20/4 22/20/4
f 20/11/1 3/19/1 18/19/1
f 18/20/5 29/45/5 27/46/5
f 22/10/5 34/47/5 11/27/5
f 7/32/6 25/48/6 26/49/6
f 31/50/6 24/17/6 32/51/6
f 8/7/2 48/1/2 45/7/2
f 4/7/2 43/1/2 2/1/2
f 8/3/3 14/10/3 5/10/3
f 10/20/4 39/17/4 12/17/4
f 16/17/4 47/20/4 14/20/4
f 12/11/1 2/19/1 10/19/1
f 2/52/5 42/53/5 10/20/5
f 5/27/5 47/54/5 46/55/5
f 41/56/6 4/32/6 39/48/6
f 8/57/6 44/58/6 16/17/6
f 9/1/1 29/59/1 26/2/1
f 25/4/1 28/60/1 43/5/1
f 6/7/1 39/61/1 42/8/1
f 13/3/2 23/17/2 21/10/2
f 19/11/3 17/20/3 47/12/3
f 33/14/3 30/42/3 45/15/3
f 23/17/3 32/40/3 34/18/3
f 19/11/4 6/62/4 1/19/4
f 17/20/5 1/52/5 42/21/5
f 50/23/5 43/24/5 28/30/5
f 36/22/5 33/14/5 48/16/5
f 50/23/5 28/30/5 36/22/5
f 47/12/5 42/21/5 43/24/5
f 43/24/5 50/23/5 51/25/5
f 51/25/5 46/26/5 47/12/5
f 50/23/5 48/16/5 46/26/5
f 9/27/5 21/10/5 34/18/5
f 27/29/5 37/31/5 36/22/5
f 37/31/5 27/29/5 29/28/5
f 29/28/5 34/18/5 33/14/5
f 33/14/5 36/22/5 37/31/5
f 6/32/6 19/11/6 44/13/6
f 49/36/6 45/15/6 30/42/6
f 35/34/6 25/44/6 40/35/6
f 49/36/6 30/42/6 35/34/6
f 52/37/6 41/38/6 39/33/6
f 39/33/6 44/13/6 45/15/6
f 45/15/6 49/36/6 52/37/6
f 49/36/6 40/35/6 41/38/6
f 23/17/6 13/57/6 26/39/6
f 31/41/6 38/43/6 35/34/6
f 38/43/6 31/41/6 32/40/6
f 32/40/6 26/39/6 25/44/6
f 25/44/6 35/34/6 38/43/6
f 15/7/2 11/1/2 34/1/2
f 7/7/2 26/7/2 29/1/2
f 15/3/3 24/3/3 22/10/3
f 20/17/4 18/20/4 28/20/4
f 24/17/4 30/17/4 33/20/4
f 20/11/1 7/11/1 3/19/1
f 27/46/5 28/53/5 18/20/5
f 18/20/5 3/52/5 29/45/5
f 22/10/5 33/54/5 34/47/5
f 7/32/6 20/11/6 25/48/6
f 31/50/6 30/58/6 24/17/6
f 24/17/6 15/57/6 32/51/6
f 8/7/2 5/1/2 48/1/2
f 4/7/2 40/7/2 43/1/2
f 8/3/3 16/3/3 14/10/3
f 10/20/4 42/20/4 39/17/4
f 16/17/4 44/17/4 47/20/4
f 12/11/1 4/11/1 2/19/1
f 2/52/5 43/45/5 42/53/5
f 46/55/5 48/47/5 5/27/5
f 5/27/5 14/10/5 47/54/5
f 41/56/6 40/49/6 4/32/6
f 4/32/6 12/11/6 39/48/6
f 8/57/6 45/51/6 44/58/6
