# Blender 4.3.2
# www.blender.org
mtllib Enemy.mtl
o body
v 0.418173 -0.418173 -0.418173
v 0.418173 0.418173 -0.418173
v 0.418173 -0.418173 0.418173
v 0.418173 0.418173 0.418173
v -0.418173 -0.418173 -0.418173
v -0.418173 0.418173 -0.418173
v -0.418173 -0.418173 0.418173
v -0.418173 0.418173 0.418173
v 0.449185 -0.449185 0.000000
v 0.449185 0.449185 0.000000
v -0.449185 -0.449185 0.000000
v -0.449185 0.449185 0.000000
v -0.000000 -0.598805 0.598805
v -0.000000 0.598805 0.598805
v -0.000000 -0.598805 -0.598805
v -0.000000 0.598805 -0.598805
v 0.000000 0.795911 0.000000
v 0.000000 -0.795911 0.000000
v 0.449185 0.000000 -0.449185
v 0.449185 0.000000 0.449185
v -0.449185 0.000000 0.449185
v -0.449185 0.000000 -0.449185
v -0.662274 0.000000 0.000000
v 0.662274 0.000000 0.000000
v 0.000000 0.000000 -0.795911
v 0.000000 0.000000 0.795911
v 0.226380 -0.550547 0.550547
v 0.226380 0.550547 -0.550547
v 0.243169 -0.674039 0.000000
v 0.226380 0.550547 0.550547
v 0.226380 -0.550547 -0.550547
v 0.243169 0.674039 0.000000
v 0.243169 0.000000 0.674039
v 0.243169 0.000000 -0.674039
v -0.226380 0.550547 0.550547
v -0.226380 -0.550547 -0.550547
v -0.243169 0.674039 0.000000
v -0.226380 -0.550547 0.550547
v -0.226380 0.550547 -0.550547
v -0.243169 -0.674039 0.000000
v -0.243169 0.000000 -0.674039
v -0.243169 0.000000 0.674039
vn 0.8991 0.0983 0.4265
vn -0.7333 0.1042 0.6719
vn -0.8991 0.0983 -0.4265
vn 0.7333 0.1042 -0.6719
vn -0.6420 -0.7437 -0.1864
vn 0.6420 0.7437 -0.1864
vn 0.6420 0.7437 0.1864
vn -0.6420 -0.7437 0.1864
vn -0.8991 0.0983 0.4265
vn 0.8991 0.0983 -0.4265
vn 0.4381 -0.8742 0.2094
vn -0.4381 0.8742 0.2094
vn -0.4381 0.8742 -0.2094
vn 0.4381 -0.8742 -0.2094
vn -0.4381 0.2094 -0.8742
vn 0.4381 0.2094 0.8742
vn 0.2599 -0.3019 0.9172
vn -0.2599 -0.3019 -0.9172
vn 0.8991 -0.4265 -0.0983
vn -0.8991 -0.4265 0.0983
vn 0.6420 -0.1864 -0.7437
vn -0.8991 -0.4265 -0.0983
vn -0.6420 -0.1864 0.7437
vn 0.8991 -0.4265 0.0983
vn 0.2599 -0.3019 -0.9172
vn 0.6420 -0.1864 0.7437
vn 0.7333 0.1042 0.6719
vn 0.7333 -0.6719 -0.1042
vn 0.7333 -0.6719 0.1042
vn 0.2599 0.9172 0.3019
vn 0.2599 0.9172 -0.3019
vn 0.4381 0.2094 -0.8742
vn -0.2599 -0.3019 0.9172
vn -0.6420 -0.1864 -0.7437
vn -0.7333 0.1042 -0.6719
vn -0.7333 0.6719 -0.1042
vn -0.7333 0.6719 0.1042
vn -0.2599 -0.9172 0.3019
vn -0.2599 -0.9172 -0.3019
vn -0.4381 0.2094 0.8742
vn 0.8991 0.4265 0.0983
vn -0.6420 0.1864 0.7437
vn -0.8991 0.4265 -0.0983
vn 0.6420 0.1864 -0.7437
vn -0.7333 -0.6719 -0.1042
vn 0.7333 0.6719 -0.1042
vn 0.7333 0.6719 0.1042
vn -0.7333 -0.6719 0.1042
vn -0.8991 0.4265 0.0983
vn 0.8991 0.4265 -0.0983
vn 0.2599 -0.9172 0.3019
vn -0.2599 0.9172 0.3019
vn -0.2599 0.9172 -0.3019
vn 0.2599 -0.9172 -0.3019
vn -0.2599 0.3019 -0.9172
vn 0.2599 0.3019 0.9172
vn 0.4381 -0.2094 0.8742
vn -0.4381 -0.2094 -0.8742
vn 0.8991 -0.0983 -0.4265
vn -0.8991 -0.0983 0.4265
vn 0.7333 -0.1042 -0.6719
vn -0.8991 -0.0983 -0.4265
vn -0.7333 -0.1042 0.6719
vn 0.8991 -0.0983 0.4265
vn 0.4381 -0.2094 -0.8742
vn 0.7333 -0.1042 0.6719
vn 0.6420 0.1864 0.7437
vn 0.6420 -0.7437 -0.1864
vn 0.6420 -0.7437 0.1864
vn 0.4381 0.8742 0.2094
vn 0.4381 0.8742 -0.2094
vn 0.2599 0.3019 -0.9172
vn -0.4381 -0.2094 0.8742
vn -0.7333 -0.1042 -0.6719
vn -0.6420 0.1864 -0.7437
vn -0.6420 0.7437 -0.1864
vn -0.6420 0.7437 0.1864
vn -0.4381 -0.8742 0.2094
vn -0.4381 -0.8742 -0.2094
vn -0.2599 0.3019 0.9172
vt 0.500000 0.125000
vt 0.625000 0.250000
vt 0.500000 0.250000
vt 0.500000 0.437500
vt 0.625000 0.500000
vt 0.500000 0.500000
vt 0.500000 0.625000
vt 0.625000 0.750000
vt 0.500000 0.750000
vt 0.500000 0.937500
vt 0.625000 1.000000
vt 0.500000 1.000000
vt 0.312500 0.625000
vt 0.375000 0.750000
vt 0.312500 0.750000
vt 0.812500 0.625000
vt 0.875000 0.750000
vt 0.812500 0.750000
vt 0.875000 0.500000
vt 0.812500 0.500000
vt 0.375000 0.500000
vt 0.312500 0.500000
vt 0.625000 0.000000
vt 0.500000 0.000000
vt 0.187500 0.500000
vt 0.250000 0.625000
vt 0.187500 0.625000
vt 0.687500 0.500000
vt 0.750000 0.625000
vt 0.687500 0.625000
vt 0.687500 0.750000
vt 0.187500 0.750000
vt 0.625000 0.812500
vt 0.500000 0.875000
vt 0.500000 0.812500
vt 0.625000 0.312500
vt 0.500000 0.375000
vt 0.500000 0.312500
vt 0.375000 0.312500
vt 0.375000 0.375000
vt 0.375000 0.812500
vt 0.375000 0.875000
vt 0.375000 0.000000
vt 0.375000 0.125000
vt 0.375000 0.625000
vt 0.375000 1.000000
vt 0.375000 0.937500
vt 0.375000 0.437500
vt 0.375000 0.250000
vt 0.125000 0.750000
vt 0.125000 0.625000
vt 0.125000 0.500000
vt 0.750000 0.500000
vt 0.750000 0.750000
vt 0.625000 0.937500
vt 0.625000 0.625000
vt 0.250000 0.500000
vt 0.250000 0.750000
vt 0.625000 0.437500
vt 0.625000 0.125000
vt 0.875000 0.625000
vt 0.625000 0.875000
vt 0.625000 0.375000
s 0
f 24/1/1 4/2/1 20/3/1
f 42/4/2 8/5/2 21/6/2
f 23/7/3 6/8/3 22/9/3
f 34/10/4 2/11/4 19/12/4
f 40/13/5 5/14/5 36/15/5
f 32/16/6 2/17/6 28/18/6
f 4/19/7 32/16/7 30/20/7
f 7/21/8 40/13/8 38/22/8
f 8/5/9 23/7/9 21/6/9
f 2/23/10 24/1/10 19/24/10
f 27/25/11 18/26/11 29/27/11
f 35/28/12 17/29/12 37/30/12
f 17/29/13 39/31/13 37/30/13
f 18/26/14 31/32/14 29/27/14
f 39/33/15 25/34/15 41/35/15
f 30/36/16 26/37/16 33/38/16
f 27/39/17 26/37/17 13/40/17
f 36/41/18 25/34/18 15/42/18
f 1/43/19 24/1/19 9/44/19
f 7/21/20 23/7/20 11/45/20
f 34/10/21 1/46/21 31/47/21
f 23/7/22 5/14/22 11/45/22
f 42/4/23 7/21/23 38/48/23
f 24/1/24 3/49/24 9/44/24
f 25/34/25 31/47/25 15/42/25
f 3/49/26 33/38/26 27/39/26
f 4/2/27 33/38/27 20/3/27
f 29/27/28 1/50/28 9/51/28
f 3/52/29 29/27/29 9/51/29
f 30/20/30 17/29/30 14/53/30
f 17/29/31 28/18/31 16/54/31
f 25/34/32 28/55/32 34/10/32
f 26/37/33 38/48/33 13/40/33
f 5/14/34 41/35/34 36/41/34
f 6/8/35 41/35/35 22/9/35
f 37/30/36 6/8/36 12/56/36
f 8/5/37 37/30/37 12/56/37
f 38/22/38 18/26/38 13/57/38
f 18/26/39 36/15/39 15/58/39
f 26/37/40 35/59/40 42/4/40
f 24/1/41 10/60/41 4/2/41
f 42/4/42 35/59/42 8/5/42
f 23/7/43 12/56/43 6/8/43
f 34/10/44 28/55/44 2/11/44
f 40/13/45 11/45/45 5/14/45
f 32/16/46 10/61/46 2/17/46
f 4/19/47 10/61/47 32/16/47
f 7/21/48 11/45/48 40/13/48
f 8/5/49 12/56/49 23/7/49
f 2/23/50 10/60/50 24/1/50
f 27/25/51 13/57/51 18/26/51
f 35/28/52 14/53/52 17/29/52
f 17/29/53 16/54/53 39/31/53
f 18/26/54 15/58/54 31/32/54
f 39/33/55 16/62/55 25/34/55
f 30/36/56 14/63/56 26/37/56
f 27/39/57 33/38/57 26/37/57
f 36/41/58 41/35/58 25/34/58
f 1/43/59 19/24/59 24/1/59
f 7/21/60 21/6/60 23/7/60
f 34/10/61 19/12/61 1/46/61
f 23/7/62 22/9/62 5/14/62
f 42/4/63 21/6/63 7/21/63
f 24/1/64 20/3/64 3/49/64
f 25/34/65 34/10/65 31/47/65
f 3/49/66 20/3/66 33/38/66
f 4/2/67 30/36/67 33/38/67
f 29/27/68 31/32/68 1/50/68
f 3/52/69 27/25/69 29/27/69
f 30/20/70 32/16/70 17/29/70
f 17/29/71 32/16/71 28/18/71
f 25/34/72 16/62/72 28/55/72
f 26/37/73 42/4/73 38/48/73
f 5/14/74 22/9/74 41/35/74
f 6/8/75 39/33/75 41/35/75
f 37/30/76 39/31/76 6/8/76
f 8/5/77 35/28/77 37/30/77
f 38/22/78 40/13/78 18/26/78
f 18/26/79 40/13/79 36/15/79
f 26/37/80 14/63/80 35/59/80
o r_Wheel
v 1.242374 -0.525402 -0.525402
v 1.242374 0.525402 -0.525402
v 1.242374 -0.525402 0.525402
v 1.242374 0.525402 0.525402
v 0.615850 -0.525402 -0.525402
v 0.615850 0.525402 -0.525402
v 0.615850 -0.525402 0.525402
v 0.615850 0.525402 0.525402
v 1.265605 -0.564366 0.000000
v 1.265605 0.564366 0.000000
v 0.592619 -0.564366 0.000000
v 0.592619 0.564366 0.000000
v 0.929112 -0.752352 0.752352
v 0.929112 0.752352 0.752352
v 0.929112 -0.752352 -0.752352
v 0.929112 0.752352 -0.752352
v 0.929112 1.000000 0.000000
v 0.929112 -1.000000 0.000000
v 1.265605 0.000000 -0.564366
v 1.265605 0.000000 0.564366
v 0.592619 0.000000 0.564366
v 0.592619 0.000000 -0.564366
v 0.564825 0.000000 0.000000
v 1.293399 0.000000 0.000000
v 0.929112 0.000000 -1.000000
v 0.929112 0.000000 1.000000
v 1.098698 -0.691718 0.691718
v 1.098698 0.691718 -0.691718
v 1.111274 -0.846877 0.000000
v 1.098698 0.691718 0.691718
v 1.098698 -0.691718 -0.691718
v 1.111274 0.846877 0.000000
v 1.111274 0.000000 0.846877
v 1.111274 0.000000 -0.846877
v 0.759526 0.691718 0.691718
v 0.759526 -0.691718 -0.691718
v 0.746950 0.846877 0.000000
v 0.759526 -0.691718 0.691718
v 0.759526 0.691718 -0.691718
v 0.746950 -0.846877 0.000000
v 0.746950 0.000000 -0.846877
v 0.746950 0.000000 0.846877
vn 0.9976 0.0478 0.0491
vn -0.8752 0.0742 0.4781
vn -0.9976 0.0478 -0.0491
vn 0.8752 0.0742 -0.4781
vn -0.8146 -0.5627 -0.1410
vn 0.8146 0.5627 -0.1410
vn 0.8146 0.5627 0.1410
vn -0.8146 -0.5627 0.1410
vn -0.9976 0.0478 0.0491
vn 0.9976 0.0478 -0.0491
vn 0.6329 -0.7529 0.1804
vn -0.6329 0.7529 0.1804
vn -0.6329 0.7529 -0.1804
vn 0.6329 -0.7529 -0.1804
vn -0.6329 0.1804 -0.7529
vn 0.6329 0.1804 0.7529
vn 0.4114 -0.2850 0.8657
vn -0.4114 -0.2850 -0.8657
vn 0.9976 -0.0491 -0.0478
vn -0.9976 -0.0491 0.0478
vn 0.8146 -0.1410 -0.5627
vn -0.9976 -0.0491 -0.0478
vn -0.8146 -0.1410 0.5627
vn 0.9976 -0.0491 0.0478
vn 0.4114 -0.2850 -0.8657
vn 0.8146 -0.1410 0.5627
vn 0.8752 0.0742 0.4781
vn 0.8752 -0.4781 -0.0742
vn 0.8752 -0.4781 0.0742
vn 0.4114 0.8657 0.2850
vn 0.4114 0.8657 -0.2850
vn 0.6329 0.1804 -0.7529
vn -0.4114 -0.2850 0.8657
vn -0.8146 -0.1410 -0.5627
vn -0.8752 0.0742 -0.4781
vn -0.8752 0.4781 -0.0742
vn -0.8752 0.4781 0.0742
vn -0.4114 -0.8657 0.2850
vn -0.4114 -0.8657 -0.2850
vn -0.6329 0.1804 0.7529
vn 0.9976 0.0491 0.0478
vn -0.8146 0.1410 0.5627
vn -0.9976 0.0491 -0.0478
vn 0.8146 0.1410 -0.5627
vn -0.8752 -0.4781 -0.0742
vn 0.8752 0.4781 -0.0742
vn 0.8752 0.4781 0.0742
vn -0.8752 -0.4781 0.0742
vn -0.9976 0.0491 0.0478
vn 0.9976 0.0491 -0.0478
vn 0.4114 -0.8657 0.2850
vn -0.4114 0.8657 0.2850
vn -0.4114 0.8657 -0.2850
vn 0.4114 -0.8657 -0.2850
vn -0.4114 0.2850 -0.8657
vn 0.4114 0.2850 0.8657
vn 0.6329 -0.1804 0.7529
vn -0.6329 -0.1804 -0.7529
vn 0.9976 -0.0478 -0.0491
vn -0.9976 -0.0478 0.0491
vn 0.8752 -0.0742 -0.4781
vn -0.9976 -0.0478 -0.0491
vn -0.8752 -0.0742 0.4781
vn 0.9976 -0.0478 0.0491
vn 0.6329 -0.1804 -0.7529
vn 0.8752 -0.0742 0.4781
vn 0.8146 0.1410 0.5627
vn 0.8146 -0.5627 -0.1410
vn 0.8146 -0.5627 0.1410
vn 0.6329 0.7529 0.1804
vn 0.6329 0.7529 -0.1804
vn 0.4114 0.2850 -0.8657
vn -0.6329 -0.1804 0.7529
vn -0.8752 -0.0742 -0.4781
vn -0.8146 0.1410 -0.5627
vn -0.8146 0.5627 -0.1410
vn -0.8146 0.5627 0.1410
vn -0.6329 -0.7529 0.1804
vn -0.6329 -0.7529 -0.1804
vn -0.4114 0.2850 0.8657
vt 0.500000 0.125000
vt 0.625000 0.250000
vt 0.500000 0.250000
vt 0.500000 0.437500
vt 0.625000 0.500000
vt 0.500000 0.500000
vt 0.500000 0.625000
vt 0.625000 0.750000
vt 0.500000 0.750000
vt 0.500000 0.937500
vt 0.625000 1.000000
vt 0.500000 1.000000
vt 0.312500 0.625000
vt 0.375000 0.750000
vt 0.312500 0.750000
vt 0.812500 0.625000
vt 0.875000 0.750000
vt 0.812500 0.750000
vt 0.875000 0.500000
vt 0.812500 0.500000
vt 0.375000 0.500000
vt 0.312500 0.500000
vt 0.625000 0.000000
vt 0.500000 0.000000
vt 0.187500 0.500000
vt 0.250000 0.625000
vt 0.187500 0.625000
vt 0.687500 0.500000
vt 0.750000 0.625000
vt 0.687500 0.625000
vt 0.687500 0.750000
vt 0.187500 0.750000
vt 0.625000 0.812500
vt 0.500000 0.875000
vt 0.500000 0.812500
vt 0.625000 0.312500
vt 0.500000 0.375000
vt 0.500000 0.312500
vt 0.375000 0.312500
vt 0.375000 0.375000
vt 0.375000 0.812500
vt 0.375000 0.875000
vt 0.375000 0.000000
vt 0.375000 0.125000
vt 0.375000 0.625000
vt 0.375000 1.000000
vt 0.375000 0.937500
vt 0.375000 0.437500
vt 0.375000 0.250000
vt 0.125000 0.750000
vt 0.125000 0.625000
vt 0.125000 0.500000
vt 0.750000 0.500000
vt 0.750000 0.750000
vt 0.625000 0.937500
vt 0.625000 0.625000
vt 0.250000 0.500000
vt 0.250000 0.750000
vt 0.625000 0.437500
vt 0.625000 0.125000
vt 0.875000 0.625000
vt 0.625000 0.875000
vt 0.625000 0.375000
s 0
f 66/64/81 46/65/81 62/66/81
f 84/67/82 50/68/82 63/69/82
f 65/70/83 48/71/83 64/72/83
f 76/73/84 44/74/84 61/75/84
f 82/76/85 47/77/85 78/78/85
f 74/79/86 44/80/86 70/81/86
f 46/82/87 74/79/87 72/83/87
f 49/84/88 82/76/88 80/85/88
f 50/68/89 65/70/89 63/69/89
f 44/86/90 66/64/90 61/87/90
f 69/88/91 60/89/91 71/90/91
f 77/91/92 59/92/92 79/93/92
f 59/92/93 81/94/93 79/93/93
f 60/89/94 73/95/94 71/90/94
f 81/96/95 67/97/95 83/98/95
f 72/99/96 68/100/96 75/101/96
f 69/102/97 68/100/97 55/103/97
f 78/104/98 67/97/98 57/105/98
f 43/106/99 66/64/99 51/107/99
f 49/84/100 65/70/100 53/108/100
f 76/73/101 43/109/101 73/110/101
f 65/70/102 47/77/102 53/108/102
f 84/67/103 49/84/103 80/111/103
f 66/64/104 45/112/104 51/107/104
f 67/97/105 73/110/105 57/105/105
f 45/112/106 75/101/106 69/102/106
f 46/65/107 75/101/107 62/66/107
f 71/90/108 43/113/108 51/114/108
f 45/115/109 71/90/109 51/114/109
f 72/83/110 59/92/110 56/116/110
f 59/92/111 70/81/111 58/117/111
f 67/97/112 70/118/112 76/73/112
f 68/100/113 80/111/113 55/103/113
f 47/77/114 83/98/114 78/104/114
f 48/71/115 83/98/115 64/72/115
f 79/93/116 48/71/116 54/119/116
f 50/68/117 79/93/117 54/119/117
f 80/85/118 60/89/118 55/120/118
f 60/89/119 78/78/119 57/121/119
f 68/100/120 77/122/120 84/67/120
f 66/64/121 52/123/121 46/65/121
f 84/67/122 77/122/122 50/68/122
f 65/70/123 54/119/123 48/71/123
f 76/73/124 70/118/124 44/74/124
f 82/76/125 53/108/125 47/77/125
f 74/79/126 52/124/126 44/80/126
f 46/82/127 52/124/127 74/79/127
f 49/84/128 53/108/128 82/76/128
f 50/68/129 54/119/129 65/70/129
f 44/86/130 52/123/130 66/64/130
f 69/88/131 55/120/131 60/89/131
f 77/91/132 56/116/132 59/92/132
f 59/92/133 58/117/133 81/94/133
f 60/89/134 57/121/134 73/95/134
f 81/96/135 58/125/135 67/97/135
f 72/99/136 56/126/136 68/100/136
f 69/102/137 75/101/137 68/100/137
f 78/104/138 83/98/138 67/97/138
f 43/106/139 61/87/139 66/64/139
f 49/84/140 63/69/140 65/70/140
f 76/73/141 61/75/141 43/109/141
f 65/70/142 64/72/142 47/77/142
f 84/67/143 63/69/143 49/84/143
f 66/64/144 62/66/144 45/112/144
f 67/97/145 76/73/145 73/110/145
f 45/112/146 62/66/146 75/101/146
f 46/65/147 72/99/147 75/101/147
f 71/90/148 73/95/148 43/113/148
f 45/115/149 69/88/149 71/90/149
f 72/83/150 74/79/150 59/92/150
f 59/92/151 74/79/151 70/81/151
f 67/97/152 58/125/152 70/118/152
f 68/100/153 84/67/153 80/111/153
f 47/77/154 64/72/154 83/98/154
f 48/71/155 81/96/155 83/98/155
f 79/93/156 81/94/156 48/71/156
f 50/68/157 77/91/157 79/93/157
f 80/85/158 82/76/158 60/89/158
f 60/89/159 82/76/159 78/78/159
f 68/100/160 56/126/160 77/122/160
o l_Wheel
v -0.615850 -0.525402 -0.525402
v -0.615850 0.525402 -0.525402
v -0.615850 -0.525402 0.525402
v -0.615850 0.525402 0.525402
v -1.242374 -0.525402 -0.525402
v -1.242374 0.525402 -0.525402
v -1.242374 -0.525402 0.525402
v -1.242374 0.525402 0.525402
v -0.592619 -0.564366 0.000000
v -0.592619 0.564366 0.000000
v -1.265605 -0.564366 0.000000
v -1.265605 0.564366 0.000000
v -0.929112 -0.752352 0.752352
v -0.929112 0.752352 0.752352
v -0.929112 -0.752352 -0.752352
v -0.929112 0.752352 -0.752352
v -0.929112 1.000000 0.000000
v -0.929112 -1.000000 0.000000
v -0.592619 0.000000 -0.564366
v -0.592619 0.000000 0.564366
v -1.265605 0.000000 0.564366
v -1.265605 0.000000 -0.564366
v -1.293399 0.000000 0.000000
v -0.564825 0.000000 0.000000
v -0.929112 0.000000 -1.000000
v -0.929112 0.000000 1.000000
v -0.759526 -0.691718 0.691718
v -0.759526 0.691718 -0.691718
v -0.746950 -0.846877 0.000000
v -0.759526 0.691718 0.691718
v -0.759526 -0.691718 -0.691718
v -0.746950 0.846877 0.000000
v -0.746950 0.000000 0.846877
v -0.746950 0.000000 -0.846877
v -1.098698 0.691718 0.691718
v -1.098698 -0.691718 -0.691718
v -1.111274 0.846877 0.000000
v -1.098698 -0.691718 0.691718
v -1.098698 0.691718 -0.691718
v -1.111274 -0.846877 0.000000
v -1.111274 0.000000 -0.846877
v -1.111274 0.000000 0.846877
vn 0.9976 0.0478 0.0491
vn -0.8752 0.0742 0.4781
vn -0.9976 0.0478 -0.0491
vn 0.8752 0.0742 -0.4781
vn -0.8146 -0.5627 -0.1410
vn 0.8146 0.5627 -0.1410
vn 0.8146 0.5627 0.1410
vn -0.8146 -0.5627 0.1410
vn -0.9976 0.0478 0.0491
vn 0.9976 0.0478 -0.0491
vn 0.6329 -0.7529 0.1804
vn -0.6329 0.7529 0.1804
vn -0.6329 0.7529 -0.1804
vn 0.6329 -0.7529 -0.1804
vn -0.6329 0.1804 -0.7529
vn 0.6329 0.1804 0.7529
vn 0.4114 -0.2850 0.8657
vn -0.4114 -0.2850 -0.8657
vn 0.9976 -0.0491 -0.0478
vn -0.9977 -0.0491 0.0478
vn 0.8146 -0.1410 -0.5627
vn -0.9977 -0.0491 -0.0478
vn -0.8146 -0.1410 0.5627
vn 0.9976 -0.0491 0.0478
vn 0.4114 -0.2850 -0.8657
vn 0.8146 -0.1410 0.5627
vn 0.8752 0.0742 0.4781
vn 0.8752 -0.4781 -0.0742
vn 0.8752 -0.4781 0.0742
vn 0.4114 0.8657 0.2850
vn 0.4114 0.8657 -0.2850
vn 0.6329 0.1804 -0.7529
vn -0.4114 -0.2850 0.8657
vn -0.8146 -0.1410 -0.5627
vn -0.8752 0.0742 -0.4781
vn -0.8752 0.4781 -0.0742
vn -0.8752 0.4781 0.0742
vn -0.4114 -0.8657 0.2850
vn -0.4114 -0.8657 -0.2850
vn -0.6329 0.1804 0.7529
vn 0.9976 0.0491 0.0478
vn -0.8146 0.1410 0.5627
vn -0.9977 0.0491 -0.0478
vn 0.8146 0.1410 -0.5627
vn -0.8752 -0.4781 -0.0742
vn 0.8752 0.4781 -0.0742
vn 0.8752 0.4781 0.0742
vn -0.8752 -0.4781 0.0742
vn -0.9977 0.0491 0.0478
vn 0.9976 0.0491 -0.0478
vn 0.4114 -0.8657 0.2850
vn -0.4114 0.8657 0.2850
vn -0.4114 0.8657 -0.2850
vn 0.4114 -0.8657 -0.2850
vn -0.4114 0.2850 -0.8657
vn 0.4114 0.2850 0.8657
vn 0.6329 -0.1804 0.7529
vn -0.6329 -0.1804 -0.7529
vn 0.9976 -0.0478 -0.0491
vn -0.9976 -0.0478 0.0491
vn 0.8752 -0.0742 -0.4781
vn -0.9976 -0.0478 -0.0491
vn -0.8752 -0.0742 0.4781
vn 0.9976 -0.0478 0.0491
vn 0.6329 -0.1804 -0.7529
vn 0.8752 -0.0742 0.4781
vn 0.8146 0.1410 0.5627
vn 0.8146 -0.5627 -0.1410
vn 0.8146 -0.5627 0.1410
vn 0.6329 0.7529 0.1804
vn 0.6329 0.7529 -0.1804
vn 0.4114 0.2850 -0.8657
vn -0.6329 -0.1804 0.7529
vn -0.8752 -0.0742 -0.4781
vn -0.8146 0.1410 -0.5627
vn -0.8146 0.5627 -0.1410
vn -0.8146 0.5627 0.1410
vn -0.6329 -0.7529 0.1804
vn -0.6329 -0.7529 -0.1804
vn -0.4114 0.2850 0.8657
vt 0.500000 0.125000
vt 0.625000 0.250000
vt 0.500000 0.250000
vt 0.500000 0.437500
vt 0.625000 0.500000
vt 0.500000 0.500000
vt 0.500000 0.625000
vt 0.625000 0.750000
vt 0.500000 0.750000
vt 0.500000 0.937500
vt 0.625000 1.000000
vt 0.500000 1.000000
vt 0.312500 0.625000
vt 0.375000 0.750000
vt 0.312500 0.750000
vt 0.812500 0.625000
vt 0.875000 0.750000
vt 0.812500 0.750000
vt 0.875000 0.500000
vt 0.812500 0.500000
vt 0.375000 0.500000
vt 0.312500 0.500000
vt 0.625000 0.000000
vt 0.500000 0.000000
vt 0.187500 0.500000
vt 0.250000 0.625000
vt 0.187500 0.625000
vt 0.687500 0.500000
vt 0.750000 0.625000
vt 0.687500 0.625000
vt 0.687500 0.750000
vt 0.187500 0.750000
vt 0.625000 0.812500
vt 0.500000 0.875000
vt 0.500000 0.812500
vt 0.625000 0.312500
vt 0.500000 0.375000
vt 0.500000 0.312500
vt 0.375000 0.312500
vt 0.375000 0.375000
vt 0.375000 0.812500
vt 0.375000 0.875000
vt 0.375000 0.000000
vt 0.375000 0.125000
vt 0.375000 0.625000
vt 0.375000 1.000000
vt 0.375000 0.937500
vt 0.375000 0.437500
vt 0.375000 0.250000
vt 0.125000 0.750000
vt 0.125000 0.625000
vt 0.125000 0.500000
vt 0.750000 0.500000
vt 0.750000 0.750000
vt 0.625000 0.937500
vt 0.625000 0.625000
vt 0.250000 0.500000
vt 0.250000 0.750000
vt 0.625000 0.437500
vt 0.625000 0.125000
vt 0.875000 0.625000
vt 0.625000 0.875000
vt 0.625000 0.375000
s 0
f 108/127/161 88/128/161 104/129/161
f 126/130/162 92/131/162 105/132/162
f 107/133/163 90/134/163 106/135/163
f 118/136/164 86/137/164 103/138/164
f 124/139/165 89/140/165 120/141/165
f 116/142/166 86/143/166 112/144/166
f 88/145/167 116/142/167 114/146/167
f 91/147/168 124/139/168 122/148/168
f 92/131/169 107/133/169 105/132/169
f 86/149/170 108/127/170 103/150/170
f 111/151/171 102/152/171 113/153/171
f 119/154/172 101/155/172 121/156/172
f 101/155/173 123/157/173 121/156/173
f 102/152/174 115/158/174 113/153/174
f 123/159/175 109/160/175 125/161/175
f 114/162/176 110/163/176 117/164/176
f 111/165/177 110/163/177 97/166/177
f 120/167/178 109/160/178 99/168/178
f 85/169/179 108/127/179 93/170/179
f 91/147/180 107/133/180 95/171/180
f 118/136/181 85/172/181 115/173/181
f 107/133/182 89/140/182 95/171/182
f 126/130/183 91/147/183 122/174/183
f 108/127/184 87/175/184 93/170/184
f 109/160/185 115/173/185 99/168/185
f 87/175/186 117/164/186 111/165/186
f 88/128/187 117/164/187 104/129/187
f 113/153/188 85/176/188 93/177/188
f 87/178/189 113/153/189 93/177/189
f 114/146/190 101/155/190 98/179/190
f 101/155/191 112/144/191 100/180/191
f 109/160/192 112/181/192 118/136/192
f 110/163/193 122/174/193 97/166/193
f 89/140/194 125/161/194 120/167/194
f 90/134/195 125/161/195 106/135/195
f 121/156/196 90/134/196 96/182/196
f 92/131/197 121/156/197 96/182/197
f 122/148/198 102/152/198 97/183/198
f 102/152/199 120/141/199 99/184/199
f 110/163/200 119/185/200 126/130/200
f 108/127/201 94/186/201 88/128/201
f 126/130/202 119/185/202 92/131/202
f 107/133/203 96/182/203 90/134/203
f 118/136/204 112/181/204 86/137/204
f 124/139/205 95/171/205 89/140/205
f 116/142/206 94/187/206 86/143/206
f 88/145/207 94/187/207 116/142/207
f 91/147/208 95/171/208 124/139/208
f 92/131/209 96/182/209 107/133/209
f 86/149/210 94/186/210 108/127/210
f 111/151/211 97/183/211 102/152/211
f 119/154/212 98/179/212 101/155/212
f 101/155/213 100/180/213 123/157/213
f 102/152/214 99/184/214 115/158/214
f 123/159/215 100/188/215 109/160/215
f 114/162/216 98/189/216 110/163/216
f 111/165/217 117/164/217 110/163/217
f 120/167/218 125/161/218 109/160/218
f 85/169/219 103/150/219 108/127/219
f 91/147/220 105/132/220 107/133/220
f 118/136/221 103/138/221 85/172/221
f 107/133/222 106/135/222 89/140/222
f 126/130/223 105/132/223 91/147/223
f 108/127/224 104/129/224 87/175/224
f 109/160/225 118/136/225 115/173/225
f 87/175/226 104/129/226 117/164/226
f 88/128/227 114/162/227 117/164/227
f 113/153/228 115/158/228 85/176/228
f 87/178/229 111/151/229 113/153/229
f 114/146/230 116/142/230 101/155/230
f 101/155/231 116/142/231 112/144/231
f 109/160/232 100/188/232 112/181/232
f 110/163/233 126/130/233 122/174/233
f 89/140/234 106/135/234 125/161/234
f 90/134/235 123/159/235 125/161/235
f 121/156/236 123/157/236 90/134/236
f 92/131/237 119/154/237 121/156/237
f 122/148/238 124/139/238 102/152/238
f 102/152/239 124/139/239 120/141/239
f 110/163/240 98/189/240 119/185/240
o drill
v 0.154247 -0.155691 0.470587
v 0.154247 0.152820 0.470587
v 0.154247 -0.155691 0.868917
v 0.154247 0.152820 0.868917
v -0.154265 -0.155691 0.470587
v -0.154265 0.152820 0.470587
v -0.154265 -0.155691 0.868917
v -0.154265 0.152820 0.868917
v -0.000043 -0.001470 1.292272
vn 1.0000 -0.0000 -0.0000
vn -0.0000 -0.9396 0.3423
vn -1.0000 -0.0000 -0.0000
vn -0.0000 -0.0000 -1.0000
vn -0.0000 -1.0000 -0.0000
vn -0.0000 1.0000 -0.0000
vn -0.9396 -0.0000 0.3423
vn -0.0000 0.9395 0.3424
vn 0.9395 -0.0000 0.3424
vt 0.625000 0.000000
vt 0.375000 0.250000
vt 0.375000 0.000000
vt 0.499975 0.375025
vt 0.375000 0.500000
vt 0.625000 0.500000
vt 0.375000 0.750000
vt 0.625000 0.750000
vt 0.375000 1.000000
vt 0.125000 0.750000
vt 0.125000 0.500000
vt 0.875000 0.500000
vt 0.625000 0.250000
vt 0.625000 1.000000
vt 0.875000 0.750000
s 0
f 128/190/241 129/191/241 127/192/241
f 129/191/242 135/193/242 133/194/242
f 134/195/243 131/196/243 133/194/243
f 132/197/244 127/198/244 131/196/244
f 133/194/245 127/199/245 129/200/245
f 130/201/246 132/197/246 134/195/246
f 133/194/247 135/193/247 134/195/247
f 134/195/248 135/193/248 130/202/248
f 130/202/249 135/193/249 129/191/249
f 128/190/241 130/202/241 129/191/241
f 134/195/243 132/197/243 131/196/243
f 132/197/244 128/203/244 127/198/244
f 133/194/245 131/196/245 127/199/245
f 130/201/246 128/204/246 132/197/246
